<svg width="80" height="23" viewBox="17 10 79 23" fill="none" xmlns="http://www.w3.org/2000/svg">
<path d="M18.3333 28.8333C18.3333 26.8333 19.5 25.1666 21.3333 23.8333C19.0833 23.5 17 21.5833 17 17.9166C17 13.0833 20 10.5833 24.3333 10.5833C26 10.5833 28.4167 10.9166 30.0833 11.5833V23C30.0833 23.6666 30 25.5 29.9167 26.1666C29.5 30.25 27.4167 32.6666 23.4167 32.6666C20 32.75 18.3333 31.25 18.3333 28.8333ZM25.4167 19.5833V14C25.0833 13.9166 24.6667 13.8333 24.25 13.8333C22.5 13.8333 21.6667 15.5 21.6667 17.8333C21.6667 19.6666 21.9167 21.5833 23.6667 21.5833C24.5833 21.5833 25.4167 20.9166 25.4167 19.5833ZM25.5 26.5V24C23.8333 25 22.4167 26.3333 22.4167 28.0833C22.4167 29.0833 22.9167 29.5 23.75 29.5C25.0833 29.4166 25.5 28.4166 25.5 26.5Z" fill="white"/>
<path d="M31.8334 20.25V5.83336H36.5V20.25C36.5 21.5 36.8334 22.0834 37.75 22.0834C38.1667 22.0834 38.75 21.9167 39.3334 21.6667L40.3334 24.75C39.3334 25.5 37.6667 25.75 36.4167 25.75C32.1667 25.8334 31.8334 23 31.8334 20.25Z" fill="white"/>
<path d="M40.2499 20.6667V11H44.9166V20C44.9166 21.25 45.0832 22.1667 46.2499 22.1667C47.1666 22.1667 47.9166 21.25 47.9166 20.25V11H52.5832V22.5833L52.9166 25.3333H48.9999L48.7499 23.9167H48.6666C47.8332 25.0833 46.4999 25.6667 44.9999 25.6667C41.8332 25.75 40.2499 24 40.2499 20.6667Z" fill="white"/>
<path d="M54.0825 18.5833C54.0825 14.5 56.4992 10.5833 61.2492 10.5833C64.1659 10.5833 66.1659 12 66.1659 15C66.1659 19 61.8325 19.9167 58.8325 20.0833C58.9992 21.25 59.9159 22.3333 61.5825 22.3333C62.9159 22.3333 64.1659 21.75 64.9992 21.1667L66.2492 24.25C66.0825 24.4167 63.9992 25.8333 60.9159 25.8333C55.9992 25.8333 54.0825 22.8333 54.0825 18.5833ZM62.0825 15C62.0825 14.3333 61.6659 13.8333 60.9159 13.8333C59.4992 13.8333 58.6659 15.1667 58.5825 17.0833C60.0825 17 62.0825 16.3333 62.0825 15Z" fill="white"/>
<path d="M82.7798 18.3636C82.7798 20.0639 82.4492 21.4982 81.788 22.6665C81.1268 23.8299 80.2344 24.7124 79.1108 25.3139C77.9872 25.9105 76.7344 26.2088 75.3523 26.2088C73.9602 26.2088 72.7024 25.908 71.5788 25.3065C70.4602 24.6999 69.5703 23.815 68.9091 22.6516C68.2528 21.4833 67.9247 20.054 67.9247 18.3636C67.9247 16.6634 68.2528 15.2315 68.9091 14.0682C69.5703 12.8999 70.4602 12.0174 71.5788 11.4208C72.7024 10.8192 73.9602 10.5185 75.3523 10.5185C76.7344 10.5185 77.9872 10.8192 79.1108 11.4208C80.2344 12.0174 81.1268 12.8999 81.788 14.0682C82.4492 15.2315 82.7798 16.6634 82.7798 18.3636ZM78.5142 18.3636C78.5142 17.4489 78.3924 16.6783 78.1488 16.0518C77.9102 15.4205 77.5547 14.9432 77.0824 14.62C76.6151 14.2919 76.0384 14.1278 75.3523 14.1278C74.6662 14.1278 74.087 14.2919 73.6147 14.62C73.1474 14.9432 72.7919 15.4205 72.5483 16.0518C72.3097 16.6783 72.1903 17.4489 72.1903 18.3636C72.1903 19.2784 72.3097 20.0515 72.5483 20.6829C72.7919 21.3093 73.1474 21.7866 73.6147 22.1147C74.087 22.4379 74.6662 22.5994 75.3523 22.5994C76.0384 22.5994 76.6151 22.4379 77.0824 22.1147C77.5547 21.7866 77.9102 21.3093 78.1488 20.6829C78.3924 20.0515 78.5142 19.2784 78.5142 18.3636ZM91.4612 15.5C91.4214 15.0028 91.235 14.6151 90.9019 14.3366C90.5738 14.0582 90.0741 13.919 89.403 13.919C88.9754 13.919 88.6249 13.9712 88.3515 14.0756C88.083 14.1751 87.8841 14.3118 87.7549 14.4858C87.6256 14.6598 87.5585 14.8587 87.5535 15.0824C87.5436 15.2663 87.5759 15.4329 87.6505 15.582C87.73 15.7262 87.8543 15.858 88.0233 15.9773C88.1924 16.0916 88.4086 16.196 88.6721 16.2905C88.9356 16.3849 89.2488 16.4695 89.6118 16.544L90.8646 16.8125C91.7098 16.9915 92.4331 17.2276 93.0347 17.521C93.6363 17.8143 94.1285 18.1598 94.5113 18.5575C94.8941 18.9503 95.175 19.3928 95.354 19.8849C95.5379 20.3771 95.6324 20.9141 95.6373 21.4957C95.6324 22.5 95.3813 23.3501 94.8841 24.0462C94.387 24.7422 93.676 25.2717 92.7513 25.6346C91.8316 25.9975 90.7254 26.179 89.4328 26.179C88.1054 26.179 86.947 25.9826 85.9576 25.5898C84.9733 25.1971 84.2076 24.593 83.6608 23.7777C83.1189 22.9574 82.8454 21.9084 82.8405 20.6307H86.778C86.8028 21.098 86.9196 21.4908 87.1285 21.8089C87.3373 22.1271 87.6306 22.3683 88.0084 22.5323C88.3912 22.6964 88.8461 22.7784 89.3731 22.7784C89.8156 22.7784 90.186 22.7237 90.4843 22.6143C90.7826 22.505 91.0088 22.3533 91.1629 22.1594C91.317 21.9656 91.3966 21.7443 91.4015 21.4957C91.3966 21.2621 91.3195 21.0582 91.1704 20.8842C91.0262 20.7053 90.7875 20.5462 90.4544 20.407C90.1214 20.2628 89.6714 20.1286 89.1047 20.0043L87.5834 19.6761C86.2311 19.3828 85.1647 18.8931 84.3841 18.207C83.6086 17.516 83.2233 16.5739 83.2282 15.3807C83.2233 14.4112 83.4818 13.5636 84.0038 12.8377C84.5308 12.1069 85.2591 11.5376 86.1888 11.13C87.1235 10.7223 88.1949 10.5185 89.403 10.5185C90.6359 10.5185 91.7023 10.7248 92.6022 11.1374C93.502 11.5501 94.1956 12.1317 94.6828 12.8825C95.175 13.6282 95.4236 14.5007 95.4285 15.5H91.4612Z" fill="#FC2E8F"/>
</svg>
